<svg version="1.1" id="Layer_1" xmlns="http://www.w3.org/2000/svg" xmlns:xlink="http://www.w3.org/1999/xlink" x="0px" y="0px"
	 width="100%" viewBox="0 0 3094 2933" enable-background="new 0 0 3094 2933" xml:space="preserve">
<path fill="#FFFFFF" opacity="1.000000" stroke="none" 
	d="
M3096.000000,388.000000 
	C3096.000000,1237.268433 3096.000000,2086.536865 3096.000000,2935.902832 
	C2064.810303,2935.902832 1033.620728,2935.902832 2.215562,2935.902832 
	C2.215562,1958.218506 2.215562,980.436890 2.215562,2.000000 
	C695.395020,2.000000 1388.790283,2.000000 2082.625000,2.633787 
	C2065.028076,5.401349 2048.151123,11.219946 2032.295166,19.879335 
	C2015.341187,29.138329 2002.632690,42.550159 1996.736328,61.138985 
	C1992.725952,73.781830 1992.216431,86.810043 1993.342163,100.359604 
	C1996.633423,139.969528 2009.970093,175.732910 2034.072021,206.781372 
	C2061.344727,241.914734 2090.045166,275.972076 2118.884033,309.851105 
	C2182.989746,385.160522 2241.731934,464.385437 2294.319336,548.132812 
	C2334.490723,612.107666 2370.301270,678.465271 2401.118652,747.461487 
	C2427.828369,807.260803 2450.624756,868.525452 2469.047852,931.391785 
	C2483.236816,979.809692 2494.115234,1028.973022 2501.407959,1078.893188 
	C2507.500977,1120.597900 2510.729492,1162.579834 2511.539307,1204.706177 
	C2511.858398,1221.301514 2510.619141,1237.921387 2510.369141,1254.534302 
	C2509.828857,1290.422607 2505.811279,1325.951660 2500.433105,1361.404053 
	C2493.996826,1403.830688 2484.054199,1445.390991 2470.935059,1486.196777 
	C2447.077881,1560.402344 2412.338623,1629.201294 2368.297852,1693.483032 
	C2329.924072,1749.493408 2285.449463,1799.926270 2233.453857,1843.596558 
	C2185.320801,1884.022705 2132.558838,1917.232910 2075.108643,1942.773560 
	C2044.780151,1956.256714 2014.081543,1968.906860 1983.569824,1981.979370 
	C1981.728638,1982.768066 1980.062256,1983.964844 1978.314575,1984.971802 
	C1985.945068,1986.190918 1993.269287,1987.021729 2000.340088,1986.036011 
	C2022.027710,1983.013184 2043.632690,1979.381104 2065.243652,1975.826660 
	C2116.371338,1967.416870 2167.283936,1958.086060 2217.302979,1944.196655 
	C2290.877930,1923.766113 2361.679932,1896.469116 2428.347656,1859.157349 
	C2504.414551,1816.584961 2571.736084,1762.981201 2629.707275,1697.629272 
	C2670.505371,1651.637085 2705.260742,1601.579224 2733.900391,1547.273560 
	C2770.397217,1478.068848 2795.375732,1404.700195 2811.790527,1328.332764 
	C2823.435059,1274.159058 2832.796631,1219.622559 2836.333252,1164.238892 
	C2838.298340,1133.461548 2840.490234,1102.679443 2841.459229,1071.864258 
	C2842.106201,1051.296875 2841.090332,1030.654663 2840.255371,1010.068848 
	C2839.274414,985.881653 2838.455566,961.646057 2836.172607,937.563599 
	C2832.860596,902.628418 2829.528809,867.613831 2823.957764,832.994873 
	C2817.120361,790.506653 2808.103271,748.364014 2799.713379,706.134583 
	C2797.728271,696.142883 2791.846191,688.664612 2781.716797,685.354553 
	C2775.738770,683.401062 2769.749268,681.455078 2763.684814,679.798584 
	C2717.479980,667.178162 2671.743652,653.385925 2629.593994,629.818237 
	C2597.379639,611.805908 2568.103271,590.031616 2543.532227,562.428406 
	C2501.842529,515.593750 2480.384277,459.802917 2474.624512,398.103760 
	C2470.842041,357.590637 2473.639160,317.097626 2483.800781,277.450165 
	C2488.330322,259.777283 2493.629150,242.302505 2498.481934,224.711105 
	C2501.612061,213.363937 2499.494141,202.979218 2492.180908,193.739899 
	C2468.407715,163.705978 2442.560791,135.739944 2412.676514,111.544991 
	C2344.535645,56.376667 2266.578369,22.998358 2181.080322,6.047461 
	C2174.703369,4.783145 2168.359375,3.353026 2162.000000,1.999991 
	C2473.127441,2.000000 2784.254639,2.000000 3096.000000,2.000000 
	C3096.000000,100.727638 3096.000000,199.456558 3095.401855,298.552979 
	C3094.097412,293.319336 3093.707520,287.656708 3092.631104,282.127686 
	C3087.582275,256.193207 3078.677246,231.621201 3066.534668,208.146347 
	C3038.285400,153.533493 2996.985352,111.893761 2942.255615,84.003624 
	C2884.575928,54.609894 2823.417480,46.935719 2759.997070,58.116367 
	C2691.693848,70.157829 2634.419922,102.285332 2589.611572,155.523026 
	C2550.979736,201.422028 2529.821045,254.882019 2524.528809,314.364838 
	C2521.540771,347.950287 2523.493652,381.497131 2532.276123,414.314850 
	C2556.080322,503.266327 2610.412354,566.481445 2694.234375,603.872559 
	C2743.229980,625.728394 2794.854980,632.567932 2848.222412,626.268066 
	C2881.305420,622.362732 2912.550049,612.421021 2941.938721,597.136902 
	C2970.445068,582.311707 2995.824219,563.103149 3018.232666,539.842529 
	C3056.102051,500.533508 3081.211914,454.510986 3093.233887,401.309631 
	C3094.232422,396.890350 3095.081543,392.437317 3096.000000,388.000000 
M1635.002075,2077.914307 
	C1630.072632,2077.311523 1625.155762,2076.568604 1620.211914,2076.127930 
	C1574.534424,2072.054688 1529.290039,2065.053955 1484.412842,2055.725830 
	C1394.153320,2036.964355 1307.718872,2007.368042 1226.187012,1963.998291 
	C1149.440674,1923.174316 1081.176270,1871.588501 1024.212524,1805.512817 
	C975.010925,1748.441040 935.239319,1685.525879 905.526123,1616.246948 
	C883.451721,1564.778442 867.553101,1511.446533 858.527405,1456.233765 
	C853.992004,1428.489258 850.807373,1400.452515 848.569763,1372.423462 
	C846.193542,1342.658203 847.336060,1312.723633 847.833435,1282.875122 
	C848.075867,1268.329468 849.597168,1253.753052 851.395508,1239.297119 
	C854.460388,1214.660522 858.214050,1190.109619 861.627014,1165.515747 
	C861.856873,1163.859619 861.657043,1162.144043 861.657043,1160.456055 
	C860.925903,1160.277832 860.194763,1160.099609 859.463623,1159.921387 
	C857.052002,1164.480225 854.235840,1168.873291 852.290771,1173.623047 
	C829.971802,1228.122437 811.523438,1283.896729 798.045654,1341.248779 
	C787.954773,1384.188232 780.384033,1427.549561 775.430664,1471.433350 
	C771.482056,1506.415894 768.828491,1541.458374 768.581909,1576.594727 
	C768.407532,1601.446411 770.037476,1626.350586 771.808899,1651.163696 
	C773.271423,1671.649048 775.332581,1692.159058 778.509155,1712.441895 
	C787.205933,1767.972168 801.010925,1822.258057 819.960632,1875.222168 
	C842.114685,1937.142212 871.001892,1995.698730 907.190857,2050.614258 
	C942.987061,2104.933838 984.947571,2154.052979 1031.810181,2199.153320 
	C1058.439209,2224.781006 1086.221436,2248.989258 1115.649780,2271.282227 
	C1168.298096,2311.164795 1224.468628,2345.243408 1284.388306,2373.156494 
	C1344.783936,2401.291260 1407.235229,2423.555420 1471.679443,2440.405029 
	C1520.564087,2453.186035 1570.043823,2462.812012 1620.129272,2469.326172 
	C1634.925659,2471.250732 1649.793579,2472.666992 1664.653809,2474.045898 
	C1674.217651,2474.933350 1682.274414,2471.385010 1688.742188,2464.367188 
	C1691.886475,2460.955322 1694.869263,2457.384766 1697.779785,2453.769043 
	C1714.634277,2432.830322 1730.267212,2410.763916 1748.498413,2391.105469 
	C1798.126831,2337.591064 1860.438721,2308.870850 1932.797363,2302.281006 
	C1966.350830,2299.225098 1999.874512,2301.420410 2032.978516,2308.126221 
	C2091.530029,2319.986816 2142.721436,2345.927979 2185.123047,2388.376221 
	C2193.337891,2396.600586 2201.229980,2405.188721 2208.772217,2414.034180 
	C2218.953369,2425.975098 2230.887939,2430.543945 2246.017334,2424.739014 
	C2250.049072,2423.192383 2254.137695,2421.790283 2258.218506,2420.374512 
	C2329.281006,2395.721924 2396.248047,2362.989746 2457.353271,2318.856445 
	C2495.746338,2291.126709 2531.708984,2260.677246 2561.084229,2223.142334 
	C2592.059570,2183.562988 2612.798584,2139.789062 2615.735107,2088.810547 
	C2617.914795,2050.966553 2602.924805,2021.837402 2571.119385,2001.246216 
	C2545.717529,1984.800537 2517.603760,1979.888184 2488.274902,1983.860352 
	C2465.293213,1986.973145 2442.561523,1992.182129 2419.870850,1997.152832 
	C2334.245361,2015.910278 2249.029053,2036.582642 2162.478027,2050.943604 
	C2102.568604,2060.884521 2042.499390,2069.628906 1982.024536,2075.225586 
	C1947.352051,2078.434082 1912.609741,2081.014404 1877.854370,2083.155029 
	C1855.306274,2084.543457 1832.680176,2085.061279 1810.084839,2085.179443 
	C1786.134521,2085.304932 1762.173462,2084.701660 1738.228271,2084.026123 
	C1720.306641,2083.520996 1702.393433,2082.553467 1684.493652,2081.500244 
	C1668.599121,2080.565430 1652.728027,2079.229248 1635.002075,2077.914307 
M2124.224609,514.855286 
	C2094.827393,469.658569 2059.039795,430.089233 2018.524414,394.662903 
	C1956.849365,340.734833 1888.407959,296.950867 1815.804321,259.421997 
	C1765.823364,233.586700 1713.854126,212.596375 1660.058838,196.140152 
	C1591.175903,175.068573 1520.708618,162.295090 1448.848877,158.353439 
	C1409.009766,156.168182 1369.058716,156.363541 1329.133789,159.112045 
	C1294.630249,161.487335 1260.434082,165.694962 1226.476807,172.080795 
	C1149.519409,186.553070 1076.319946,212.100998 1006.475647,247.305939 
	C963.078918,269.180054 921.638550,294.353577 881.805237,322.231689 
	C817.171143,367.467194 759.291992,420.331451 706.096924,478.333344 
	C669.702026,518.017090 636.718750,560.524231 605.350952,604.326416 
	C596.151855,617.172119 593.768555,629.941772 597.871643,644.640442 
	C604.383179,667.966980 610.695068,691.349426 617.266846,714.658813 
	C629.933716,759.587158 639.096924,804.858704 634.463257,852.030273 
	C631.914856,877.973816 626.391113,903.079956 616.974060,927.319885 
	C596.480042,980.072266 561.930176,1022.350037 519.028137,1058.411987 
	C491.885620,1081.226929 461.767517,1099.383423 430.238708,1115.270508 
	C415.117920,1122.889893 399.432556,1129.382080 384.221588,1136.831299 
	C373.025665,1142.314087 366.243927,1150.852173 366.193298,1164.241455 
	C366.143188,1177.504761 364.775024,1190.757324 364.384338,1204.026245 
	C363.562317,1231.944946 362.795837,1259.868774 362.432587,1287.796021 
	C362.281647,1299.400269 363.601929,1311.019165 363.585754,1322.630615 
	C363.550598,1347.902588 365.079926,1373.043945 367.528992,1398.201294 
	C371.492859,1438.919067 378.939514,1478.939453 389.891144,1518.304565 
	C400.033508,1554.760864 416.586823,1587.705322 444.170746,1614.375854 
	C474.491089,1643.692261 509.678467,1650.712891 548.873108,1636.209106 
	C578.849304,1625.116577 601.712219,1604.364746 619.979065,1578.740112 
	C636.888000,1555.020264 647.675598,1529.045776 646.606934,1498.908813 
	C646.236450,1488.460327 648.352600,1477.765991 650.499207,1467.426147 
	C653.126770,1454.769653 656.848999,1442.331299 660.324036,1429.861572 
	C679.488770,1361.092285 700.131165,1292.789673 724.139587,1225.524536 
	C757.125916,1133.105469 795.132935,1042.884644 840.573303,955.840271 
	C870.136902,899.209167 902.111755,844.037415 938.062195,791.195740 
	C972.896973,739.993958 1011.177185,691.501709 1053.805298,646.610474 
	C1093.252197,605.069336 1135.294434,566.302612 1181.207031,531.818542 
	C1228.436768,496.345154 1278.382812,465.449646 1332.113647,440.893066 
	C1384.878418,416.778015 1439.749268,399.127411 1496.754761,387.956482 
	C1534.631104,380.534119 1572.852295,376.011108 1611.301514,374.395233 
	C1638.141602,373.267303 1665.137817,374.135925 1691.990234,375.533051 
	C1715.814453,376.772644 1739.688232,378.961090 1763.274536,382.500885 
	C1822.985474,391.462219 1880.788818,407.769165 1936.847534,430.239990 
	C1999.260864,455.258087 2057.562256,487.454926 2110.064453,529.689697 
	C2123.530029,540.522034 2136.494873,551.976746 2149.689941,563.145447 
	C2144.836670,545.582886 2134.295654,531.149963 2124.224609,514.855286 
M2080.435547,2905.593262 
	C2089.108643,2901.394287 2098.051758,2897.670410 2106.411133,2892.919189 
	C2157.360107,2863.961670 2197.453369,2824.279785 2225.369873,2772.446777 
	C2244.597900,2736.746338 2255.094971,2698.652100 2257.571289,2658.361084 
	C2258.879150,2637.080322 2257.165283,2615.774414 2253.510010,2594.821289 
	C2242.215820,2530.075439 2214.737061,2473.693604 2166.276367,2428.243896 
	C2143.950928,2407.305664 2119.127197,2390.147949 2091.072021,2378.148682 
	C2016.503662,2346.256836 1940.690063,2343.934814 1864.447754,2371.464111 
	C1804.400269,2393.145508 1757.589478,2431.990723 1724.534180,2486.419434 
	C1686.087280,2549.726074 1674.158325,2618.671875 1686.038696,2691.522461 
	C1695.590698,2750.095215 1722.152344,2800.488037 1763.802124,2842.526855 
	C1789.034912,2867.995850 1818.366577,2888.012939 1851.403198,2902.469482 
	C1896.072266,2922.016357 1942.750366,2930.792480 1991.304443,2927.771240 
	C2021.673828,2925.881348 2050.994873,2918.309082 2080.435547,2905.593262 
M242.380707,1086.965820 
	C274.275848,1093.661011 306.489807,1094.586304 338.544006,1089.603271 
	C407.750854,1078.844727 466.463287,1047.913574 512.830383,994.992676 
	C563.459961,937.206848 587.730957,869.960510 584.472961,792.861877 
	C583.740417,775.526550 581.843445,758.479858 578.055237,741.616455 
	C565.768066,686.921448 539.182861,640.002991 499.497406,600.738464 
	C473.752533,575.266663 443.997498,555.166687 410.505798,541.065125 
	C352.340729,516.574890 292.307037,510.933319 230.826324,525.344727 
	C172.378967,539.045105 123.408333,569.056641 83.288445,613.671753 
	C37.347363,664.760315 12.803795,724.873535 8.490552,793.140198 
	C6.569923,823.538452 9.806087,853.853394 19.200531,882.846680 
	C54.651054,992.254395 128.928909,1059.948486 242.380707,1086.965820 
M1532.913330,1888.156128 
	C1550.984619,1898.712158 1568.845825,1909.652832 1587.201538,1919.688843 
	C1599.406738,1926.361938 1609.095581,1923.939819 1618.413452,1913.748901 
	C1630.073975,1900.996216 1641.869019,1888.365112 1653.427734,1875.520996 
	C1667.428467,1859.963623 1681.436157,1844.334473 1692.184692,1826.272095 
	C1708.160156,1799.425659 1723.835693,1772.396973 1739.313232,1745.260132 
	C1747.218140,1731.400391 1754.613892,1717.238159 1761.862549,1703.020386 
	C1767.092041,1692.763062 1765.327637,1686.336060 1756.141357,1679.818115 
	C1752.350830,1677.128540 1748.291382,1674.816772 1744.342896,1672.351440 
	C1716.704468,1655.093628 1688.983398,1637.966431 1661.443481,1620.552979 
	C1629.677246,1600.467529 1598.143433,1580.013916 1566.312622,1560.032471 
	C1561.693848,1557.133179 1555.985474,1554.285889 1550.778931,1554.281860 
	C1518.830811,1554.256592 1486.948853,1553.587280 1455.163818,1550.028809 
	C1432.403076,1547.480713 1409.541382,1545.718262 1386.855225,1542.642700 
	C1343.285767,1536.735840 1301.076660,1524.554321 1258.594360,1513.690186 
	C1250.693481,1511.669800 1242.780762,1509.696167 1233.708984,1507.406982 
	C1238.838013,1523.672852 1244.462769,1537.710083 1251.977905,1551.105957 
	C1270.679077,1584.441284 1288.030762,1618.563965 1307.564087,1651.395020 
	C1336.892822,1700.690063 1371.932129,1745.891602 1411.574951,1787.364868 
	C1447.781250,1825.242676 1487.845947,1858.622803 1532.913330,1888.156128 
M1702.054077,810.822021 
	C1691.258301,815.943176 1680.767334,821.883728 1669.610596,826.034912 
	C1633.212769,839.577576 1596.965454,853.719971 1559.942871,865.347290 
	C1483.256714,889.431396 1404.949219,904.905884 1324.065918,904.176392 
	C1319.815552,904.138062 1315.478516,904.990295 1311.319336,905.996277 
	C1307.055908,907.027466 1304.399414,910.022522 1304.399902,914.616211 
	C1304.400269,917.907593 1304.533325,921.264893 1305.177612,924.478271 
	C1307.262085,934.873352 1309.518188,945.236450 1311.871094,955.574768 
	C1326.506226,1019.879089 1347.919678,1081.848999 1376.156494,1141.445923 
	C1380.401245,1150.405029 1385.087891,1159.154663 1389.762451,1168.380493 
	C1393.013428,1167.719360 1395.629517,1167.435425 1398.084229,1166.648438 
	C1415.158936,1161.173828 1432.295898,1155.870972 1449.233276,1149.994751 
	C1491.703857,1135.260376 1532.448730,1116.505859 1572.035522,1095.345581 
	C1612.537598,1073.696045 1651.539307,1049.462158 1688.687378,1022.452393 
	C1715.282349,1003.115479 1741.165894,982.790710 1767.148926,962.626038 
	C1778.141479,954.095154 1779.452393,947.631409 1773.940430,935.066101 
	C1758.204956,899.195496 1742.431641,863.341431 1726.608032,827.509644 
	C1723.305176,820.030457 1719.722656,812.674866 1716.110840,804.922729 
	C1711.309326,806.936218 1707.387817,808.580750 1702.054077,810.822021 
M1826.021729,1137.165039 
	C1820.815552,1111.615479 1815.609497,1086.066040 1810.179810,1059.419434 
	C1804.981323,1063.042969 1801.133301,1065.592163 1797.426025,1068.331665 
	C1778.440430,1082.360229 1759.785522,1096.857422 1740.469604,1110.413818 
	C1695.733643,1141.810547 1648.437622,1168.888062 1598.785889,1191.717163 
	C1553.399414,1212.585205 1506.450439,1229.222534 1458.123291,1241.936157 
	C1455.247681,1242.692871 1452.356079,1243.625488 1449.702148,1244.940796 
	C1443.376099,1248.076050 1441.870850,1251.632935 1445.036499,1257.790283 
	C1447.439819,1262.464966 1450.671631,1266.786377 1453.972534,1270.915039 
	C1477.839355,1300.766113 1501.653931,1330.661743 1525.809692,1360.278442 
	C1547.242676,1386.556641 1569.290161,1412.334229 1590.664795,1438.658936 
	C1599.376343,1449.387939 1610.044067,1451.748413 1622.723145,1449.014648 
	C1625.324829,1448.453735 1627.921631,1447.867798 1630.513062,1447.260498 
	C1677.755493,1436.189575 1725.006104,1425.153442 1772.232788,1414.015625 
	C1787.099731,1410.509644 1802.067627,1407.284302 1816.689819,1402.926025 
	C1833.203735,1398.003906 1840.493774,1387.565796 1840.218628,1370.298828 
	C1839.996582,1356.372559 1838.932983,1342.460815 1838.319336,1328.539307 
	C1837.456055,1308.953979 1836.742676,1289.361816 1835.820312,1269.779297 
	C1834.727905,1246.587769 1833.857788,1223.376465 1832.188721,1200.224365 
	C1830.712280,1179.744629 1828.272217,1159.334473 1826.021729,1137.165039 
M1915.775391,1099.246460 
	C1922.738892,1129.608765 1929.598755,1160.008667 1932.301880,1191.115723 
	C1934.996826,1222.130005 1937.451538,1253.169434 1939.578735,1284.227539 
	C1940.870728,1303.088501 1941.362915,1322.005005 1942.169678,1340.898315 
	C1942.419312,1346.741089 1942.522461,1352.589844 1942.735840,1359.922729 
	C1946.648926,1357.787231 1949.210815,1356.531860 1951.631592,1355.046509 
	C1981.932739,1336.453735 2012.188965,1317.787354 2042.508789,1299.225098 
	C2060.929932,1287.947388 2079.557373,1277.002441 2097.877930,1265.565552 
	C2113.835205,1255.604126 2124.878662,1241.478271 2127.142822,1222.635132 
	C2128.546143,1210.954468 2127.293701,1198.838257 2126.261719,1187.002197 
	C2122.460938,1143.405762 2116.024170,1100.166382 2108.018311,1057.144043 
	C2099.441650,1011.055786 2088.127930,965.644470 2071.583740,921.798950 
	C2059.173340,888.909058 2044.710815,856.792297 2031.084717,824.363708 
	C2028.476196,818.155457 2025.507812,812.098389 2022.456177,805.426575 
	C2020.883789,807.095276 2020.159058,807.744263 2019.574707,808.501526 
	C1978.588623,861.614075 1937.655518,914.767456 1896.590942,967.819031 
	C1890.893188,975.179749 1888.898560,983.137146 1890.967896,992.055603 
	C1899.132446,1027.243530 1907.401733,1062.406982 1915.775391,1099.246460 
M2298.315430,1575.214600 
	C2306.004150,1560.081787 2314.254395,1545.204468 2321.279541,1529.769653 
	C2345.582520,1476.375977 2363.765381,1420.935059 2375.188232,1363.356323 
	C2382.758057,1325.201050 2387.498779,1286.692505 2387.602783,1247.745483 
	C2387.649658,1230.134521 2387.230225,1212.493652 2386.182861,1194.916504 
	C2385.157471,1177.708496 2384.187744,1160.366455 2381.206055,1143.433228 
	C2375.053955,1108.495850 2367.578125,1073.791626 2360.648682,1038.991089 
	C2359.373047,1032.585083 2358.107178,1026.177124 2356.880615,1019.990784 
	C2350.820557,1018.411865 2347.854248,1020.626648 2346.329590,1025.469604 
	C2345.630859,1027.689453 2344.806396,1029.871338 2343.999268,1032.055542 
	C2318.824219,1100.159180 2285.280029,1163.775757 2241.914551,1222.099976 
	C2236.648438,1229.182251 2232.895508,1236.824097 2231.505371,1245.523315 
	C2230.303955,1253.041748 2228.907471,1260.573364 2228.415527,1268.152344 
	C2226.845459,1292.337891 2226.122559,1316.585449 2224.195312,1340.738892 
	C2222.059814,1367.496948 2219.771973,1394.289917 2216.111572,1420.869385 
	C2207.832031,1480.990601 2191.915527,1539.255981 2169.304199,1595.507446 
	C2155.926514,1628.787354 2140.479736,1661.235352 2125.986084,1694.067383 
	C2124.436523,1697.577393 2123.036133,1701.153076 2121.304932,1705.329468 
	C2147.387695,1714.906860 2172.450928,1716.088867 2197.670654,1707.659058 
	C2204.578613,1705.349976 2210.286377,1701.028320 2215.243164,1695.115234 
	C2246.308105,1658.056396 2273.674072,1618.473511 2298.315430,1575.214600 
M1484.212402,564.759888 
	C1482.183105,563.619080 1480.024170,562.658447 1478.145264,561.308350 
	C1465.219971,552.021057 1451.724976,552.247253 1437.463989,558.030090 
	C1419.611450,565.269287 1401.483887,571.827820 1383.598999,578.990051 
	C1371.567993,583.808044 1359.659180,588.959656 1347.871704,594.347534 
	C1339.795410,598.039124 1332.883423,603.584167 1330.055786,612.295227 
	C1322.468262,635.669800 1314.722046,659.023865 1308.204468,682.706909 
	C1300.333130,711.308655 1298.233398,740.854858 1296.378418,770.349609 
	C1296.044312,775.661438 1296.140259,781.021423 1296.379028,786.343872 
	C1296.884155,797.602661 1302.684570,805.380920 1313.537598,807.865295 
	C1320.473022,809.452881 1328.125488,810.059021 1335.104004,808.928894 
	C1362.996216,804.411987 1390.863647,799.589661 1418.528076,793.856506 
	C1456.272461,786.034241 1494.254883,778.828796 1531.340820,768.504456 
	C1571.967407,757.194336 1611.692505,742.643921 1651.794312,729.456543 
	C1653.275513,728.969543 1654.586426,727.964600 1656.482422,726.923096 
	C1655.123535,724.905884 1654.118042,723.231567 1652.939087,721.690002 
	C1628.051514,689.147461 1601.618774,658.034058 1571.376099,630.207947 
	C1544.834717,605.787292 1516.522949,583.876831 1484.212402,564.759888 
M2128.006104,844.945312 
	C2133.502197,855.957336 2139.078613,866.930115 2144.479736,877.988647 
	C2161.440186,912.714355 2176.246094,948.389954 2186.111572,985.742188 
	C2198.913574,1034.211304 2210.173828,1083.087646 2222.128906,1131.780884 
	C2222.777344,1134.421509 2223.714355,1136.991333 2224.909668,1140.868042 
	C2233.261475,1130.770630 2240.808350,1121.964233 2248.009766,1112.883789 
	C2277.681885,1075.469238 2303.970703,1036.036865 2321.084717,991.046936 
	C2328.271240,972.153564 2328.630127,953.594543 2320.973633,934.790161 
	C2305.592773,897.013855 2285.638184,861.784607 2261.695557,828.850220 
	C2224.256104,777.350586 2183.356445,728.894470 2134.548584,687.626282 
	C2119.070068,674.538696 2102.964111,662.242126 2084.145508,651.624023 
	C2076.424316,673.464050 2069.448486,694.912170 2061.190674,715.854858 
	C2056.832764,726.907349 2059.169434,735.792725 2065.405762,744.766357 
	C2087.622559,776.735657 2108.707520,809.418030 2128.006104,844.945312 
M1032.020386,1551.146240 
	C1063.470703,1614.057495 1103.558228,1671.021729 1151.513672,1722.330444 
	C1192.330444,1766.001099 1237.519653,1804.665771 1287.961426,1836.991943 
	C1342.956421,1872.236206 1401.490723,1899.440796 1465.092407,1915.158569 
	C1467.067749,1915.646729 1469.181763,1915.572876 1471.231201,1915.761108 
	C1468.605713,1912.034790 1465.552856,1909.590698 1462.390991,1907.296997 
	C1438.964966,1890.303955 1415.431885,1873.457520 1392.095093,1856.343140 
	C1347.759766,1823.829346 1305.941772,1788.546631 1269.224365,1747.336304 
	C1224.239380,1696.846802 1186.477417,1641.448608 1156.410278,1581.061523 
	C1138.054199,1544.195190 1122.542603,1505.919434 1105.449219,1468.415161 
	C1094.587158,1444.583008 1080.596802,1422.813965 1059.997314,1406.087769 
	C1052.012573,1399.604492 1043.268311,1394.062622 1034.941406,1387.993896 
	C1015.224182,1373.624268 998.320312,1356.157593 981.067017,1339.063721 
	C975.265991,1333.316406 969.010193,1328.028198 961.681091,1321.365601 
	C972.101501,1402.798584 995.031982,1478.342163 1032.020386,1551.146240 
M1889.704102,1602.706787 
	C1885.655396,1617.334717 1881.606567,1631.962524 1877.657593,1646.229370 
	C1879.123657,1647.214600 1879.609741,1647.714966 1880.197388,1647.911743 
	C1925.197266,1662.968628 1970.173096,1678.099243 2015.235840,1692.965576 
	C2025.962036,1696.504150 2032.511963,1693.740234 2037.496582,1683.758057 
	C2042.539185,1673.660034 2047.157104,1663.323242 2051.445312,1652.879150 
	C2087.386719,1565.339111 2110.098389,1474.464233 2119.833984,1380.338745 
	C2120.567383,1373.250244 2121.449219,1366.177002 2122.417236,1357.746338 
	C2118.395996,1359.826904 2115.724609,1361.057617 2113.199463,1362.538086 
	C2054.981445,1396.667847 1996.839111,1430.927612 1938.508789,1464.864258 
	C1929.900269,1469.872681 1924.656006,1476.247314 1922.032715,1485.982178 
	C1911.669067,1524.438110 1900.728027,1562.738403 1889.704102,1602.706787 
M1934.021484,1859.034424 
	C1960.172363,1823.226562 1986.323364,1787.418823 2012.989746,1750.905151 
	C1952.942017,1737.770386 1894.306152,1724.944336 1835.146484,1712.003784 
	C1783.994141,1804.105469 1717.317871,1882.323730 1630.487183,1942.986084 
	C1648.701782,1950.517822 1667.394897,1950.934204 1685.857910,1951.066040 
	C1702.394531,1951.184326 1719.033203,1949.892822 1735.472534,1947.930542 
	C1764.419678,1944.475464 1793.411377,1940.932739 1822.082886,1935.756714 
	C1851.227173,1930.495605 1877.865601,1918.691650 1900.656372,1899.154297 
	C1913.692993,1887.978638 1923.493652,1874.147461 1934.021484,1859.034424 
M1287.109741,1267.910278 
	C1274.838745,1268.559448 1262.574463,1269.417969 1250.295288,1269.810425 
	C1229.737183,1270.467529 1209.180786,1271.979614 1188.664307,1268.366211 
	C1179.354858,1266.726685 1169.807983,1266.435425 1159.427979,1265.442627 
	C1160.187134,1269.367798 1160.567993,1271.937500 1161.187134,1274.448486 
	C1169.772949,1309.262695 1178.406860,1344.064941 1186.985840,1378.880737 
	C1188.336182,1384.360107 1188.954102,1390.073853 1190.805786,1395.365967 
	C1197.196289,1413.628662 1211.470459,1422.252075 1229.496094,1426.012573 
	C1253.564331,1431.033569 1277.720093,1435.677979 1301.671387,1441.207397 
	C1353.978394,1453.282959 1406.800537,1460.426392 1461.015137,1458.622559 
	C1458.014771,1453.674072 1455.011719,1448.160034 1451.487305,1443.002686 
	C1433.476685,1416.647705 1415.428223,1390.317505 1397.206665,1364.108276 
	C1378.608643,1337.357544 1359.923828,1310.664917 1341.013794,1284.134399 
	C1333.056152,1272.969971 1322.476929,1266.206177 1308.014648,1267.120239 
	C1301.708252,1267.518677 1295.368652,1267.390503 1287.109741,1267.910278 
M1567.737183,524.233704 
	C1550.966309,526.186340 1534.204468,528.221008 1517.419922,530.047546 
	C1511.436523,530.698669 1506.264526,532.614807 1501.243408,537.531921 
	C1513.501465,544.702637 1524.886597,551.459778 1536.363037,558.057739 
	C1568.903076,576.765259 1601.542114,595.421753 1630.103271,620.021606 
	C1654.994019,641.460022 1679.193848,663.706177 1703.510864,685.802490 
	C1713.254395,694.656372 1723.867065,696.616394 1735.621460,691.041016 
	C1744.313965,686.917969 1753.081421,682.757141 1761.180298,677.613098 
	C1790.634888,658.904480 1819.828247,639.784241 1849.106201,620.797974 
	C1855.953003,616.358032 1862.745972,611.834961 1869.762817,607.219177 
	C1868.066528,605.403748 1867.047363,604.057617 1865.786011,603.000610 
	C1838.724854,580.326355 1809.323486,561.008606 1779.035156,543.019714 
	C1760.729736,532.147766 1741.522827,523.338684 1720.808228,517.756165 
	C1694.437988,510.649567 1668.109253,514.205139 1641.727051,516.780762 
	C1617.660278,519.130371 1593.610718,521.655762 1567.737183,524.233704 
M1150.312012,1162.862915 
	C1150.780640,1172.463013 1151.095703,1182.073975 1151.773560,1191.659302 
	C1152.204346,1197.751953 1157.895752,1203.224121 1164.286987,1203.914795 
	C1167.245728,1204.234497 1170.287964,1204.094727 1173.268066,1203.857544 
	C1206.026245,1201.249756 1238.782959,1198.623291 1271.531738,1195.901001 
	C1280.015137,1195.195679 1288.469238,1194.139160 1297.755493,1193.157471 
	C1294.569702,1182.933716 1292.080444,1173.348389 1288.618408,1164.128296 
	C1277.276367,1133.922119 1267.939819,1103.118530 1260.665649,1071.707642 
	C1252.798096,1037.734253 1247.029297,1003.401611 1244.111328,968.616699 
	C1242.949585,954.767822 1241.723145,940.919556 1240.192627,927.108032 
	C1239.129761,917.516479 1234.130981,911.315491 1224.036743,909.663635 
	C1209.635498,907.307068 1195.338379,904.287842 1180.909546,902.136169 
	C1171.359619,900.712036 1164.910278,905.208740 1161.909180,914.412354 
	C1160.887939,917.543884 1160.369995,920.865479 1159.879761,924.138794 
	C1158.750732,931.676331 1157.766602,939.235718 1156.747192,946.789368 
	C1153.197266,973.095215 1149.361694,999.347473 1149.624756,1026.027954 
	C1150.067993,1070.982300 1150.104614,1115.940674 1150.312012,1162.862915 
M966.361389,1107.508301 
	C965.959534,1110.475464 965.495239,1113.435669 965.166138,1116.410889 
	C963.527466,1131.225586 961.423279,1146.012573 960.486389,1160.872559 
	C959.870789,1170.637451 965.434509,1177.172974 974.819824,1179.856812 
	C986.305298,1183.141479 997.822021,1186.336060 1009.403015,1189.261841 
	C1021.161743,1192.232422 1033.015259,1194.828003 1045.508057,1197.746948 
	C1046.328735,1191.856934 1047.617432,1186.961182 1047.595215,1182.071167 
	C1047.429810,1145.496094 1048.212280,1108.958130 1051.764160,1072.538452 
	C1053.758667,1052.087158 1055.640137,1031.588501 1058.739258,1011.289246 
	C1064.249390,975.199219 1071.500244,939.433655 1081.146973,904.172424 
	C1082.185547,900.376099 1081.519897,895.599060 1080.200928,891.774902 
	C1077.037842,882.603821 1068.610840,880.108337 1060.273560,879.132080 
	C1052.444702,878.215332 1047.348267,883.104065 1043.970337,889.953430 
	C1036.175659,905.758362 1027.766846,921.279663 1020.484253,937.314331 
	C995.945068,991.344727 977.036011,1047.221191 966.361389,1107.508301 
M1805.195801,756.132568 
	C1798.736694,761.247070 1792.277466,766.361572 1785.212769,771.955566 
	C1806.523438,807.720642 1827.550293,843.009277 1850.195557,881.014160 
	C1851.721680,877.845032 1852.188599,876.124756 1853.213745,874.855408 
	C1883.493774,837.363831 1913.914062,799.985229 1944.071167,762.395447 
	C1949.039062,756.203125 1953.201294,749.294800 1957.186768,742.400024 
	C1963.193481,732.008301 1962.812378,721.519409 1956.298096,711.345459 
	C1954.505493,708.545898 1952.915161,705.588928 1950.882080,702.976440 
	C1944.350586,694.583984 1937.670776,686.306763 1931.016602,678.010315 
	C1927.953613,674.191284 1924.817017,670.431335 1921.358032,666.210449 
	C1882.572144,696.318298 1844.500366,725.871948 1805.195801,756.132568 
M1000.658691,1228.432251 
	C985.369812,1223.012939 970.080994,1217.593628 953.583557,1211.745972 
	C954.327271,1226.165283 955.130981,1239.354858 955.646790,1252.555542 
	C956.013977,1261.955078 958.845642,1270.030029 966.200256,1276.334839 
	C987.642578,1294.716431 1008.884766,1313.333130 1030.426880,1331.596558 
	C1041.280273,1340.798096 1052.612915,1349.434448 1063.702881,1358.305542 
	C1068.603760,1355.461304 1070.254272,1352.072021 1069.534668,1347.172485 
	C1066.838501,1328.814331 1064.348022,1310.426147 1061.696899,1292.061279 
	C1060.182251,1281.569214 1058.548828,1271.093628 1056.889893,1260.623169 
	C1055.527832,1252.026978 1051.244751,1246.399414 1042.376587,1243.609009 
	C1028.770630,1239.328003 1015.511902,1233.942993 1000.658691,1228.432251 
M1267.633179,700.642639 
	C1274.271973,678.795837 1280.910889,656.949036 1287.549683,635.102234 
	C1238.368774,684.794739 1210.974609,746.067383 1189.643921,811.205139 
	C1201.565918,814.346069 1213.178223,814.068604 1224.755371,813.987244 
	C1238.075439,813.893738 1245.749023,807.272217 1247.807251,794.172180 
	C1248.217651,791.560120 1248.058960,788.863831 1248.338745,786.225037 
	C1249.243774,777.688965 1249.368530,768.954407 1251.358398,760.672241 
	C1256.076538,741.034546 1261.694336,721.613037 1267.633179,700.642639 
M1757.026001,1528.047485 
	C1740.734497,1532.506470 1723.470093,1533.816528 1707.271362,1542.675781 
	C1738.510254,1563.429321 1768.651367,1583.453491 1799.725586,1604.097778 
	C1806.703979,1573.983154 1813.460815,1544.824463 1820.567261,1514.157471 
	C1798.737305,1519.021729 1778.720825,1523.481812 1757.026001,1528.047485 
M2095.523438,1806.521484 
	C2112.257080,1792.889404 2129.305664,1779.580322 2143.156738,1762.833496 
	C2147.059082,1758.115479 2150.343750,1752.886841 2155.342529,1745.889038 
	C2139.153809,1748.050781 2125.686768,1749.751099 2112.250977,1751.668701 
	C2096.305664,1753.944336 2084.149414,1762.629639 2073.566895,1774.318604 
	C2050.344727,1799.969727 2031.235596,1828.770386 2010.331055,1856.195068 
	C2009.642944,1857.097900 2009.147827,1858.147827 2007.375610,1861.120605 
	C2040.285156,1846.604004 2067.490234,1827.249023 2095.523438,1806.521484 
M2014.644775,635.734192 
	C2016.732056,631.217529 2019.168579,626.825317 2020.831665,622.157532 
	C2023.994263,613.280640 2022.223022,608.402527 2013.667725,604.202942 
	C2005.940430,600.409790 1997.768066,597.521545 1989.782104,594.258179 
	C1986.652710,592.979370 1984.024170,593.631104 1981.727905,596.202454 
	C1974.257202,604.568298 1966.713257,612.869019 1958.627930,621.825623 
	C1971.570312,637.039551 1984.158936,651.837585 1997.791870,667.863464 
	C2003.601074,656.843872 2008.804688,646.972778 2014.644775,635.734192 
M1824.530029,542.458313 
	C1825.714111,543.064941 1826.909180,543.651184 1828.080566,544.281189 
	C1845.055420,553.409668 1861.962891,562.666199 1879.019287,571.639587 
	C1893.561157,579.290039 1906.618042,573.846802 1911.977295,557.591980 
	C1901.473633,554.601807 1890.995239,551.600952 1880.506714,548.636658 
	C1857.471313,542.126404 1834.429443,535.638123 1811.392944,529.131348 
	C1808.162720,528.218933 1804.883789,526.229187 1800.448486,530.235962 
	C1808.639160,534.437378 1815.901245,538.162476 1824.530029,542.458313 
z"/>
<path fill="#111521" opacity="1.000000" stroke="none" 
	d="
M2161.062744,1.999991 
	C2168.359375,3.353026 2174.703369,4.783145 2181.080322,6.047461 
	C2266.578369,22.998358 2344.535645,56.376667 2412.676514,111.544991 
	C2442.560791,135.739944 2468.407715,163.705978 2492.180908,193.739899 
	C2499.494141,202.979218 2501.612061,213.363937 2498.481934,224.711105 
	C2493.629150,242.302505 2488.330322,259.777283 2483.800781,277.450165 
	C2473.639160,317.097626 2470.842041,357.590637 2474.624512,398.103760 
	C2480.384277,459.802917 2501.842529,515.593750 2543.532227,562.428406 
	C2568.103271,590.031616 2597.379639,611.805908 2629.593994,629.818237 
	C2671.743652,653.385925 2717.479980,667.178162 2763.684814,679.798584 
	C2769.749268,681.455078 2775.738770,683.401062 2781.716797,685.354553 
	C2791.846191,688.664612 2797.728271,696.142883 2799.713379,706.134583 
	C2808.103271,748.364014 2817.120361,790.506653 2823.957764,832.994873 
	C2829.528809,867.613831 2832.860596,902.628418 2836.172607,937.563599 
	C2838.455566,961.646057 2839.274414,985.881653 2840.255371,1010.068848 
	C2841.090332,1030.654663 2842.106201,1051.296875 2841.459229,1071.864258 
	C2840.490234,1102.679443 2838.298340,1133.461548 2836.333252,1164.238892 
	C2832.796631,1219.622559 2823.435059,1274.159058 2811.790527,1328.332764 
	C2795.375732,1404.700195 2770.397217,1478.068848 2733.900391,1547.273560 
	C2705.260742,1601.579224 2670.505371,1651.637085 2629.707275,1697.629272 
	C2571.736084,1762.981201 2504.414551,1816.584961 2428.347656,1859.157349 
	C2361.679932,1896.469116 2290.877930,1923.766113 2217.302979,1944.196655 
	C2167.283936,1958.086060 2116.371338,1967.416870 2065.243652,1975.826660 
	C2043.632690,1979.381104 2022.027710,1983.013184 2000.340088,1986.036011 
	C1993.269287,1987.021729 1985.945068,1986.190918 1978.314575,1984.971802 
	C1980.062256,1983.964844 1981.728638,1982.768066 1983.569824,1981.979370 
	C2014.081543,1968.906860 2044.780151,1956.256714 2075.108643,1942.773560 
	C2132.558838,1917.232910 2185.320801,1884.022705 2233.453857,1843.596558 
	C2285.449463,1799.926270 2329.924072,1749.493408 2368.297852,1693.483032 
	C2412.338623,1629.201294 2447.077881,1560.402344 2470.935059,1486.196777 
	C2484.054199,1445.390991 2493.996826,1403.830688 2500.433105,1361.404053 
	C2505.811279,1325.951660 2509.828857,1290.422607 2510.369141,1254.534302 
	C2510.619141,1237.921387 2511.858398,1221.301514 2511.539307,1204.706177 
	C2510.729492,1162.579834 2507.500977,1120.597900 2501.407959,1078.893188 
	C2494.115234,1028.973022 2483.236816,979.809692 2469.047852,931.391785 
	C2450.624756,868.525452 2427.828369,807.260803 2401.118652,747.461487 
	C2370.301270,678.465271 2334.490723,612.107666 2294.319336,548.132812 
	C2241.731934,464.385437 2182.989746,385.160522 2118.884033,309.851105 
	C2090.045166,275.972076 2061.344727,241.914734 2034.072021,206.781372 
	C2009.970093,175.732910 1996.633423,139.969528 1993.342163,100.359604 
	C1992.216431,86.810043 1992.725952,73.781830 1996.736328,61.138985 
	C2002.632690,42.550159 2015.341187,29.138329 2032.295166,19.879335 
	C2048.151123,11.219946 2065.028076,5.401349 2083.532227,2.633787 
	C2109.375244,2.000000 2134.750244,2.000000 2161.062744,1.999991 
z"/>
<path fill="#F46F25" opacity="1.000000" stroke="none" 
	d="
M3096.000000,387.062683 
	C3095.081543,392.437317 3094.232422,396.890350 3093.233887,401.309631 
	C3081.211914,454.510986 3056.102051,500.533508 3018.232666,539.842529 
	C2995.824219,563.103149 2970.445068,582.311707 2941.938721,597.136902 
	C2912.550049,612.421021 2881.305420,622.362732 2848.222412,626.268066 
	C2794.854980,632.567932 2743.229980,625.728394 2694.234375,603.872559 
	C2610.412354,566.481445 2556.080322,503.266327 2532.276123,414.314850 
	C2523.493652,381.497131 2521.540771,347.950287 2524.528809,314.364838 
	C2529.821045,254.882019 2550.979736,201.422028 2589.611572,155.523026 
	C2634.419922,102.285332 2691.693848,70.157829 2759.997070,58.116367 
	C2823.417480,46.935719 2884.575928,54.609894 2942.255615,84.003624 
	C2996.985352,111.893761 3038.285400,153.533493 3066.534668,208.146347 
	C3078.677246,231.621201 3087.582275,256.193207 3092.631104,282.127686 
	C3093.707520,287.656708 3094.097412,293.319336 3095.401855,299.460205 
	C3096.000000,328.708466 3096.000000,357.416901 3096.000000,387.062683 
z"/>
<path fill="#111420" opacity="1.000000" stroke="none" 
	d="
M1635.924316,2077.992188 
	C1652.728027,2079.229248 1668.599121,2080.565430 1684.493652,2081.500244 
	C1702.393433,2082.553467 1720.306641,2083.520996 1738.228271,2084.026123 
	C1762.173462,2084.701660 1786.134521,2085.304932 1810.084839,2085.179443 
	C1832.680176,2085.061279 1855.306274,2084.543457 1877.854370,2083.155029 
	C1912.609741,2081.014404 1947.352051,2078.434082 1982.024536,2075.225586 
	C2042.499390,2069.628906 2102.568604,2060.884521 2162.478027,2050.943604 
	C2249.029053,2036.582642 2334.245361,2015.910278 2419.870850,1997.152832 
	C2442.561523,1992.182129 2465.293213,1986.973145 2488.274902,1983.860352 
	C2517.603760,1979.888184 2545.717529,1984.800537 2571.119385,2001.246216 
	C2602.924805,2021.837402 2617.914795,2050.966553 2615.735107,2088.810547 
	C2612.798584,2139.789062 2592.059570,2183.562988 2561.084229,2223.142334 
	C2531.708984,2260.677246 2495.746338,2291.126709 2457.353271,2318.856445 
	C2396.248047,2362.989746 2329.281006,2395.721924 2258.218506,2420.374512 
	C2254.137695,2421.790283 2250.049072,2423.192383 2246.017334,2424.739014 
	C2230.887939,2430.543945 2218.953369,2425.975098 2208.772217,2414.034180 
	C2201.229980,2405.188721 2193.337891,2396.600586 2185.123047,2388.376221 
	C2142.721436,2345.927979 2091.530029,2319.986816 2032.978516,2308.126221 
	C1999.874512,2301.420410 1966.350830,2299.225098 1932.797363,2302.281006 
	C1860.438721,2308.870850 1798.126831,2337.591064 1748.498413,2391.105469 
	C1730.267212,2410.763916 1714.634277,2432.830322 1697.779785,2453.769043 
	C1694.869263,2457.384766 1691.886475,2460.955322 1688.742188,2464.367188 
	C1682.274414,2471.385010 1674.217651,2474.933350 1664.653809,2474.045898 
	C1649.793579,2472.666992 1634.925659,2471.250732 1620.129272,2469.326172 
	C1570.043823,2462.812012 1520.564087,2453.186035 1471.679443,2440.405029 
	C1407.235229,2423.555420 1344.783936,2401.291260 1284.388306,2373.156494 
	C1224.468628,2345.243408 1168.298096,2311.164795 1115.649780,2271.282227 
	C1086.221436,2248.989258 1058.439209,2224.781006 1031.810181,2199.153320 
	C984.947571,2154.052979 942.987061,2104.933838 907.190857,2050.614258 
	C871.001892,1995.698730 842.114685,1937.142212 819.960632,1875.222168 
	C801.010925,1822.258057 787.205933,1767.972168 778.509155,1712.441895 
	C775.332581,1692.159058 773.271423,1671.649048 771.808899,1651.163696 
	C770.037476,1626.350586 768.407532,1601.446411 768.581909,1576.594727 
	C768.828491,1541.458374 771.482056,1506.415894 775.430664,1471.433350 
	C780.384033,1427.549561 787.954773,1384.188232 798.045654,1341.248779 
	C811.523438,1283.896729 829.971802,1228.122437 852.290771,1173.623047 
	C854.235840,1168.873291 857.052002,1164.480225 859.463623,1159.921387 
	C860.194763,1160.099609 860.925903,1160.277832 861.657043,1160.456055 
	C861.657043,1162.144043 861.856873,1163.859619 861.627014,1165.515747 
	C858.214050,1190.109619 854.460388,1214.660522 851.395508,1239.297119 
	C849.597168,1253.753052 848.075867,1268.329468 847.833435,1282.875122 
	C847.336060,1312.723633 846.193542,1342.658203 848.569763,1372.423462 
	C850.807373,1400.452515 853.992004,1428.489258 858.527405,1456.233765 
	C867.553101,1511.446533 883.451721,1564.778442 905.526123,1616.246948 
	C935.239319,1685.525879 975.010925,1748.441040 1024.212524,1805.512817 
	C1081.176270,1871.588501 1149.440674,1923.174316 1226.187012,1963.998291 
	C1307.718872,2007.368042 1394.153320,2036.964355 1484.412842,2055.725830 
	C1529.290039,2065.053955 1574.534424,2072.054688 1620.211914,2076.127930 
	C1625.155762,2076.568604 1630.072632,2077.311523 1635.924316,2077.992188 
z"/>
<path fill="#111521" opacity="1.000000" stroke="none" 
	d="
M2124.657227,515.433594 
	C2134.295654,531.149963 2144.836670,545.582886 2149.689941,563.145447 
	C2136.494873,551.976746 2123.530029,540.522034 2110.064453,529.689697 
	C2057.562256,487.454926 1999.260864,455.258087 1936.847534,430.239990 
	C1880.788818,407.769165 1822.985474,391.462219 1763.274536,382.500885 
	C1739.688232,378.961090 1715.814453,376.772644 1691.990234,375.533051 
	C1665.137817,374.135925 1638.141602,373.267303 1611.301514,374.395233 
	C1572.852295,376.011108 1534.631104,380.534119 1496.754761,387.956482 
	C1439.749268,399.127411 1384.878418,416.778015 1332.113647,440.893066 
	C1278.382812,465.449646 1228.436768,496.345154 1181.207031,531.818542 
	C1135.294434,566.302612 1093.252197,605.069336 1053.805298,646.610474 
	C1011.177185,691.501709 972.896973,739.993958 938.062195,791.195740 
	C902.111755,844.037415 870.136902,899.209167 840.573303,955.840271 
	C795.132935,1042.884644 757.125916,1133.105469 724.139587,1225.524536 
	C700.131165,1292.789673 679.488770,1361.092285 660.324036,1429.861572 
	C656.848999,1442.331299 653.126770,1454.769653 650.499207,1467.426147 
	C648.352600,1477.765991 646.236450,1488.460327 646.606934,1498.908813 
	C647.675598,1529.045776 636.888000,1555.020264 619.979065,1578.740112 
	C601.712219,1604.364746 578.849304,1625.116577 548.873108,1636.209106 
	C509.678467,1650.712891 474.491089,1643.692261 444.170746,1614.375854 
	C416.586823,1587.705322 400.033508,1554.760864 389.891144,1518.304565 
	C378.939514,1478.939453 371.492859,1438.919067 367.528992,1398.201294 
	C365.079926,1373.043945 363.550598,1347.902588 363.585754,1322.630615 
	C363.601929,1311.019165 362.281647,1299.400269 362.432587,1287.796021 
	C362.795837,1259.868774 363.562317,1231.944946 364.384338,1204.026245 
	C364.775024,1190.757324 366.143188,1177.504761 366.193298,1164.241455 
	C366.243927,1150.852173 373.025665,1142.314087 384.221588,1136.831299 
	C399.432556,1129.382080 415.117920,1122.889893 430.238708,1115.270508 
	C461.767517,1099.383423 491.885620,1081.226929 519.028137,1058.411987 
	C561.930176,1022.350037 596.480042,980.072266 616.974060,927.319885 
	C626.391113,903.079956 631.914856,877.973816 634.463257,852.030273 
	C639.096924,804.858704 629.933716,759.587158 617.266846,714.658813 
	C610.695068,691.349426 604.383179,667.966980 597.871643,644.640442 
	C593.768555,629.941772 596.151855,617.172119 605.350952,604.326416 
	C636.718750,560.524231 669.702026,518.017090 706.096924,478.333344 
	C759.291992,420.331451 817.171143,367.467194 881.805237,322.231689 
	C921.638550,294.353577 963.078918,269.180054 1006.475647,247.305939 
	C1076.319946,212.100998 1149.519409,186.553070 1226.476807,172.080795 
	C1260.434082,165.694962 1294.630249,161.487335 1329.133789,159.112045 
	C1369.058716,156.363541 1409.009766,156.168182 1448.848877,158.353439 
	C1520.708618,162.295090 1591.175903,175.068573 1660.058838,196.140152 
	C1713.854126,212.596375 1765.823364,233.586700 1815.804321,259.421997 
	C1888.407959,296.950867 1956.849365,340.734833 2018.524414,394.662903 
	C2059.039795,430.089233 2094.827393,469.658569 2124.657227,515.433594 
z"/>
<path fill="#F46F25" opacity="1.000000" stroke="none" 
	d="
M2079.720215,2905.863037 
	C2050.994873,2918.309082 2021.673828,2925.881348 1991.304443,2927.771240 
	C1942.750366,2930.792480 1896.072266,2922.016357 1851.403198,2902.469482 
	C1818.366577,2888.012939 1789.034912,2867.995850 1763.802124,2842.526855 
	C1722.152344,2800.488037 1695.590698,2750.095215 1686.038696,2691.522461 
	C1674.158325,2618.671875 1686.087280,2549.726074 1724.534180,2486.419434 
	C1757.589478,2431.990723 1804.400269,2393.145508 1864.447754,2371.464111 
	C1940.690063,2343.934814 2016.503662,2346.256836 2091.072021,2378.148682 
	C2119.127197,2390.147949 2143.950928,2407.305664 2166.276367,2428.243896 
	C2214.737061,2473.693604 2242.215820,2530.075439 2253.510010,2594.821289 
	C2257.165283,2615.774414 2258.879150,2637.080322 2257.571289,2658.361084 
	C2255.094971,2698.652100 2244.597900,2736.746338 2225.369873,2772.446777 
	C2197.453369,2824.279785 2157.360107,2863.961670 2106.411133,2892.919189 
	C2098.051758,2897.670410 2089.108643,2901.394287 2079.720215,2905.863037 
z"/>
<path fill="#F46F25" opacity="1.000000" stroke="none" 
	d="
M241.541229,1086.807739 
	C128.928909,1059.948486 54.651054,992.254395 19.200531,882.846680 
	C9.806087,853.853394 6.569923,823.538452 8.490552,793.140198 
	C12.803795,724.873535 37.347363,664.760315 83.288445,613.671753 
	C123.408333,569.056641 172.378967,539.045105 230.826324,525.344727 
	C292.307037,510.933319 352.340729,516.574890 410.505798,541.065125 
	C443.997498,555.166687 473.752533,575.266663 499.497406,600.738464 
	C539.182861,640.002991 565.768066,686.921448 578.055237,741.616455 
	C581.843445,758.479858 583.740417,775.526550 584.472961,792.861877 
	C587.730957,869.960510 563.459961,937.206848 512.830383,994.992676 
	C466.463287,1047.913574 407.750854,1078.844727 338.544006,1089.603271 
	C306.489807,1094.586304 274.275848,1093.661011 241.541229,1086.807739 
z"/>
<path fill="#F46F25" opacity="1.000000" stroke="none" 
	d="
M1532.286499,1887.797119 
	C1487.845947,1858.622803 1447.781250,1825.242676 1411.574951,1787.364868 
	C1371.932129,1745.891602 1336.892822,1700.690063 1307.564087,1651.395020 
	C1288.030762,1618.563965 1270.679077,1584.441284 1251.977905,1551.105957 
	C1244.462769,1537.710083 1238.838013,1523.672852 1233.708984,1507.406982 
	C1242.780762,1509.696167 1250.693481,1511.669800 1258.594360,1513.690186 
	C1301.076660,1524.554321 1343.285767,1536.735840 1386.855225,1542.642700 
	C1409.541382,1545.718262 1432.403076,1547.480713 1455.163818,1550.028809 
	C1486.948853,1553.587280 1518.830811,1554.256592 1550.778931,1554.281860 
	C1555.985474,1554.285889 1561.693848,1557.133179 1566.312622,1560.032471 
	C1598.143433,1580.013916 1629.677246,1600.467529 1661.443481,1620.552979 
	C1688.983398,1637.966431 1716.704468,1655.093628 1744.342896,1672.351440 
	C1748.291382,1674.816772 1752.350830,1677.128540 1756.141357,1679.818115 
	C1765.327637,1686.336060 1767.092041,1692.763062 1761.862549,1703.020386 
	C1754.613892,1717.238159 1747.218140,1731.400391 1739.313232,1745.260132 
	C1723.835693,1772.396973 1708.160156,1799.425659 1692.184692,1826.272095 
	C1681.436157,1844.334473 1667.428467,1859.963623 1653.427734,1875.520996 
	C1641.869019,1888.365112 1630.073975,1900.996216 1618.413452,1913.748901 
	C1609.095581,1923.939819 1599.406738,1926.361938 1587.201538,1919.688843 
	C1568.845825,1909.652832 1550.984619,1898.712158 1532.286499,1887.797119 
z"/>
<path fill="#111521" opacity="1.000000" stroke="none" 
	d="
M1702.760254,810.523621 
	C1707.387817,808.580750 1711.309326,806.936218 1716.110840,804.922729 
	C1719.722656,812.674866 1723.305176,820.030457 1726.608032,827.509644 
	C1742.431641,863.341431 1758.204956,899.195496 1773.940430,935.066101 
	C1779.452393,947.631409 1778.141479,954.095154 1767.148926,962.626038 
	C1741.165894,982.790710 1715.282349,1003.115479 1688.687378,1022.452393 
	C1651.539307,1049.462158 1612.537598,1073.696045 1572.035522,1095.345581 
	C1532.448730,1116.505859 1491.703857,1135.260376 1449.233276,1149.994751 
	C1432.295898,1155.870972 1415.158936,1161.173828 1398.084229,1166.648438 
	C1395.629517,1167.435425 1393.013428,1167.719360 1389.762451,1168.380493 
	C1385.087891,1159.154663 1380.401245,1150.405029 1376.156494,1141.445923 
	C1347.919678,1081.848999 1326.506226,1019.879089 1311.871094,955.574768 
	C1309.518188,945.236450 1307.262085,934.873352 1305.177612,924.478271 
	C1304.533325,921.264893 1304.400269,917.907593 1304.399902,914.616211 
	C1304.399414,910.022522 1307.055908,907.027466 1311.319336,905.996277 
	C1315.478516,904.990295 1319.815552,904.138062 1324.065918,904.176392 
	C1404.949219,904.905884 1483.256714,889.431396 1559.942871,865.347290 
	C1596.965454,853.719971 1633.212769,839.577576 1669.610596,826.034912 
	C1680.767334,821.883728 1691.258301,815.943176 1702.760254,810.523621 
z"/>
<path fill="#F46F25" opacity="1.000000" stroke="none" 
	d="
M1826.139648,1138.029297 
	C1828.272217,1159.334473 1830.712280,1179.744629 1832.188721,1200.224365 
	C1833.857788,1223.376465 1834.727905,1246.587769 1835.820312,1269.779297 
	C1836.742676,1289.361816 1837.456055,1308.953979 1838.319336,1328.539307 
	C1838.932983,1342.460815 1839.996582,1356.372559 1840.218628,1370.298828 
	C1840.493774,1387.565796 1833.203735,1398.003906 1816.689819,1402.926025 
	C1802.067627,1407.284302 1787.099731,1410.509644 1772.232788,1414.015625 
	C1725.006104,1425.153442 1677.755493,1436.189575 1630.513062,1447.260498 
	C1627.921631,1447.867798 1625.324829,1448.453735 1622.723145,1449.014648 
	C1610.044067,1451.748413 1599.376343,1449.387939 1590.664795,1438.658936 
	C1569.290161,1412.334229 1547.242676,1386.556641 1525.809692,1360.278442 
	C1501.653931,1330.661743 1477.839355,1300.766113 1453.972534,1270.915039 
	C1450.671631,1266.786377 1447.439819,1262.464966 1445.036499,1257.790283 
	C1441.870850,1251.632935 1443.376099,1248.076050 1449.702148,1244.940796 
	C1452.356079,1243.625488 1455.247681,1242.692871 1458.123291,1241.936157 
	C1506.450439,1229.222534 1553.399414,1212.585205 1598.785889,1191.717163 
	C1648.437622,1168.888062 1695.733643,1141.810547 1740.469604,1110.413818 
	C1759.785522,1096.857422 1778.440430,1082.360229 1797.426025,1068.331665 
	C1801.133301,1065.592163 1804.981323,1063.042969 1810.179810,1059.419434 
	C1815.609497,1086.066040 1820.815552,1111.615479 1826.139648,1138.029297 
z"/>
<path fill="#111521" opacity="1.000000" stroke="none" 
	d="
M1915.703735,1098.413086 
	C1907.401733,1062.406982 1899.132446,1027.243530 1890.967896,992.055603 
	C1888.898560,983.137146 1890.893188,975.179749 1896.590942,967.819031 
	C1937.655518,914.767456 1978.588623,861.614075 2019.574707,808.501526 
	C2020.159058,807.744263 2020.883789,807.095276 2022.456177,805.426575 
	C2025.507812,812.098389 2028.476196,818.155457 2031.084717,824.363708 
	C2044.710815,856.792297 2059.173340,888.909058 2071.583740,921.798950 
	C2088.127930,965.644470 2099.441650,1011.055786 2108.018311,1057.144043 
	C2116.024170,1100.166382 2122.460938,1143.405762 2126.261719,1187.002197 
	C2127.293701,1198.838257 2128.546143,1210.954468 2127.142822,1222.635132 
	C2124.878662,1241.478271 2113.835205,1255.604126 2097.877930,1265.565552 
	C2079.557373,1277.002441 2060.929932,1287.947388 2042.508789,1299.225098 
	C2012.188965,1317.787354 1981.932739,1336.453735 1951.631592,1355.046509 
	C1949.210815,1356.531860 1946.648926,1357.787231 1942.735840,1359.922729 
	C1942.522461,1352.589844 1942.419312,1346.741089 1942.169678,1340.898315 
	C1941.362915,1322.005005 1940.870728,1303.088501 1939.578735,1284.227539 
	C1937.451538,1253.169434 1934.996826,1222.130005 1932.301880,1191.115723 
	C1929.598755,1160.008667 1922.738892,1129.608765 1915.703735,1098.413086 
z"/>
<path fill="#F47026" opacity="1.000000" stroke="none" 
	d="
M2298.027344,1575.891602 
	C2273.674072,1618.473511 2246.308105,1658.056396 2215.243164,1695.115234 
	C2210.286377,1701.028320 2204.578613,1705.349976 2197.670654,1707.659058 
	C2172.450928,1716.088867 2147.387695,1714.906860 2121.304932,1705.329468 
	C2123.036133,1701.153076 2124.436523,1697.577393 2125.986084,1694.067383 
	C2140.479736,1661.235352 2155.926514,1628.787354 2169.304199,1595.507446 
	C2191.915527,1539.255981 2207.832031,1480.990601 2216.111572,1420.869385 
	C2219.771973,1394.289917 2222.059814,1367.496948 2224.195312,1340.738892 
	C2226.122559,1316.585449 2226.845459,1292.337891 2228.415527,1268.152344 
	C2228.907471,1260.573364 2230.303955,1253.041748 2231.505371,1245.523315 
	C2232.895508,1236.824097 2236.648438,1229.182251 2241.914551,1222.099976 
	C2285.280029,1163.775757 2318.824219,1100.159180 2343.999268,1032.055542 
	C2344.806396,1029.871338 2345.630859,1027.689453 2346.329590,1025.469604 
	C2347.854248,1020.626648 2350.820557,1018.411865 2356.880615,1019.990784 
	C2358.107178,1026.177124 2359.373047,1032.585083 2360.648682,1038.991089 
	C2367.578125,1073.791626 2375.053955,1108.495850 2381.206055,1143.433228 
	C2384.187744,1160.366455 2385.157471,1177.708496 2386.182861,1194.916504 
	C2387.230225,1212.493652 2387.649658,1230.134521 2387.602783,1247.745483 
	C2387.498779,1286.692505 2382.758057,1325.201050 2375.188232,1363.356323 
	C2363.765381,1420.935059 2345.582520,1476.375977 2321.279541,1529.769653 
	C2314.254395,1545.204468 2306.004150,1560.081787 2298.027344,1575.891602 
z"/>
<path fill="#F46F26" opacity="1.000000" stroke="none" 
	d="
M1484.831055,565.158142 
	C1516.522949,583.876831 1544.834717,605.787292 1571.376099,630.207947 
	C1601.618774,658.034058 1628.051514,689.147461 1652.939087,721.690002 
	C1654.118042,723.231567 1655.123535,724.905884 1656.482422,726.923096 
	C1654.586426,727.964600 1653.275513,728.969543 1651.794312,729.456543 
	C1611.692505,742.643921 1571.967407,757.194336 1531.340820,768.504456 
	C1494.254883,778.828796 1456.272461,786.034241 1418.528076,793.856506 
	C1390.863647,799.589661 1362.996216,804.411987 1335.104004,808.928894 
	C1328.125488,810.059021 1320.473022,809.452881 1313.537598,807.865295 
	C1302.684570,805.380920 1296.884155,797.602661 1296.379028,786.343872 
	C1296.140259,781.021423 1296.044312,775.661438 1296.378418,770.349609 
	C1298.233398,740.854858 1300.333130,711.308655 1308.204468,682.706909 
	C1314.722046,659.023865 1322.468262,635.669800 1330.055786,612.295227 
	C1332.883423,603.584167 1339.795410,598.039124 1347.871704,594.347534 
	C1359.659180,588.959656 1371.567993,583.808044 1383.598999,578.990051 
	C1401.483887,571.827820 1419.611450,565.269287 1437.463989,558.030090 
	C1451.724976,552.247253 1465.219971,552.021057 1478.145264,561.308350 
	C1480.024170,562.658447 1482.183105,563.619080 1484.831055,565.158142 
z"/>
<path fill="#F46F26" opacity="1.000000" stroke="none" 
	d="
M2127.686768,844.281860 
	C2108.707520,809.418030 2087.622559,776.735657 2065.405762,744.766357 
	C2059.169434,735.792725 2056.832764,726.907349 2061.190674,715.854858 
	C2069.448486,694.912170 2076.424316,673.464050 2084.145508,651.624023 
	C2102.964111,662.242126 2119.070068,674.538696 2134.548584,687.626282 
	C2183.356445,728.894470 2224.256104,777.350586 2261.695557,828.850220 
	C2285.638184,861.784607 2305.592773,897.013855 2320.973633,934.790161 
	C2328.630127,953.594543 2328.271240,972.153564 2321.084717,991.046936 
	C2303.970703,1036.036865 2277.681885,1075.469238 2248.009766,1112.883789 
	C2240.808350,1121.964233 2233.261475,1130.770630 2224.909668,1140.868042 
	C2223.714355,1136.991333 2222.777344,1134.421509 2222.128906,1131.780884 
	C2210.173828,1083.087646 2198.913574,1034.211304 2186.111572,985.742188 
	C2176.246094,948.389954 2161.440186,912.714355 2144.479736,877.988647 
	C2139.078613,866.930115 2133.502197,855.957336 2127.686768,844.281860 
z"/>
<path fill="#F47026" opacity="1.000000" stroke="none" 
	d="
M1031.708252,1550.468994 
	C995.031982,1478.342163 972.101501,1402.798584 961.681091,1321.365601 
	C969.010193,1328.028198 975.265991,1333.316406 981.067017,1339.063721 
	C998.320312,1356.157593 1015.224182,1373.624268 1034.941406,1387.993896 
	C1043.268311,1394.062622 1052.012573,1399.604492 1059.997314,1406.087769 
	C1080.596802,1422.813965 1094.587158,1444.583008 1105.449219,1468.415161 
	C1122.542603,1505.919434 1138.054199,1544.195190 1156.410278,1581.061523 
	C1186.477417,1641.448608 1224.239380,1696.846802 1269.224365,1747.336304 
	C1305.941772,1788.546631 1347.759766,1823.829346 1392.095093,1856.343140 
	C1415.431885,1873.457520 1438.964966,1890.303955 1462.390991,1907.296997 
	C1465.552856,1909.590698 1468.605713,1912.034790 1471.231201,1915.761108 
	C1469.181763,1915.572876 1467.067749,1915.646729 1465.092407,1915.158569 
	C1401.490723,1899.440796 1342.956421,1872.236206 1287.961426,1836.991943 
	C1237.519653,1804.665771 1192.330444,1766.001099 1151.513672,1722.330444 
	C1103.558228,1671.021729 1063.470703,1614.057495 1031.708252,1550.468994 
z"/>
<path fill="#F46F26" opacity="1.000000" stroke="none" 
	d="
M1889.852661,1601.901611 
	C1900.728027,1562.738403 1911.669067,1524.438110 1922.032715,1485.982178 
	C1924.656006,1476.247314 1929.900269,1469.872681 1938.508789,1464.864258 
	C1996.839111,1430.927612 2054.981445,1396.667847 2113.199463,1362.538086 
	C2115.724609,1361.057617 2118.395996,1359.826904 2122.417236,1357.746338 
	C2121.449219,1366.177002 2120.567383,1373.250244 2119.833984,1380.338745 
	C2110.098389,1474.464233 2087.386719,1565.339111 2051.445312,1652.879150 
	C2047.157104,1663.323242 2042.539185,1673.660034 2037.496582,1683.758057 
	C2032.511963,1693.740234 2025.962036,1696.504150 2015.235840,1692.965576 
	C1970.173096,1678.099243 1925.197266,1662.968628 1880.197388,1647.911743 
	C1879.609741,1647.714966 1879.123657,1647.214600 1877.657593,1646.229370 
	C1881.606567,1631.962524 1885.655396,1617.334717 1889.852661,1601.901611 
z"/>
<path fill="#111521" opacity="1.000000" stroke="none" 
	d="
M1933.594360,1859.611816 
	C1923.493652,1874.147461 1913.692993,1887.978638 1900.656372,1899.154297 
	C1877.865601,1918.691650 1851.227173,1930.495605 1822.082886,1935.756714 
	C1793.411377,1940.932739 1764.419678,1944.475464 1735.472534,1947.930542 
	C1719.033203,1949.892822 1702.394531,1951.184326 1685.857910,1951.066040 
	C1667.394897,1950.934204 1648.701782,1950.517822 1630.487183,1942.986084 
	C1717.317871,1882.323730 1783.994141,1804.105469 1835.146484,1712.003784 
	C1894.306152,1724.944336 1952.942017,1737.770386 2012.989746,1750.905151 
	C1986.323364,1787.418823 1960.172363,1823.226562 1933.594360,1859.611816 
z"/>
<path fill="#F46F26" opacity="1.000000" stroke="none" 
	d="
M1288.076904,1267.705933 
	C1295.368652,1267.390503 1301.708252,1267.518677 1308.014648,1267.120239 
	C1322.476929,1266.206177 1333.056152,1272.969971 1341.013794,1284.134399 
	C1359.923828,1310.664917 1378.608643,1337.357544 1397.206665,1364.108276 
	C1415.428223,1390.317505 1433.476685,1416.647705 1451.487305,1443.002686 
	C1455.011719,1448.160034 1458.014771,1453.674072 1461.015137,1458.622559 
	C1406.800537,1460.426392 1353.978394,1453.282959 1301.671387,1441.207397 
	C1277.720093,1435.677979 1253.564331,1431.033569 1229.496094,1426.012573 
	C1211.470459,1422.252075 1197.196289,1413.628662 1190.805786,1395.365967 
	C1188.954102,1390.073853 1188.336182,1384.360107 1186.985840,1378.880737 
	C1178.406860,1344.064941 1169.772949,1309.262695 1161.187134,1274.448486 
	C1160.567993,1271.937500 1160.187134,1269.367798 1159.427979,1265.442627 
	C1169.807983,1266.435425 1179.354858,1266.726685 1188.664307,1268.366211 
	C1209.180786,1271.979614 1229.737183,1270.467529 1250.295288,1269.810425 
	C1262.574463,1269.417969 1274.838745,1268.559448 1288.076904,1267.705933 
z"/>
<path fill="#121521" opacity="1.000000" stroke="none" 
	d="
M1568.645386,524.168701 
	C1593.610718,521.655762 1617.660278,519.130371 1641.727051,516.780762 
	C1668.109253,514.205139 1694.437988,510.649567 1720.808228,517.756165 
	C1741.522827,523.338684 1760.729736,532.147766 1779.035156,543.019714 
	C1809.323486,561.008606 1838.724854,580.326355 1865.786011,603.000610 
	C1867.047363,604.057617 1868.066528,605.403748 1869.762817,607.219177 
	C1862.745972,611.834961 1855.953003,616.358032 1849.106201,620.797974 
	C1819.828247,639.784241 1790.634888,658.904480 1761.180298,677.613098 
	C1753.081421,682.757141 1744.313965,686.917969 1735.621460,691.041016 
	C1723.867065,696.616394 1713.254395,694.656372 1703.510864,685.802490 
	C1679.193848,663.706177 1654.994019,641.460022 1630.103271,620.021606 
	C1601.542114,595.421753 1568.903076,576.765259 1536.363037,558.057739 
	C1524.886597,551.459778 1513.501465,544.702637 1501.243408,537.531921 
	C1506.264526,532.614807 1511.436523,530.698669 1517.419922,530.047546 
	C1534.204468,528.221008 1550.966309,526.186340 1568.645386,524.168701 
z"/>
<path fill="#F47026" opacity="1.000000" stroke="none" 
	d="
M1150.312134,1161.880127 
	C1150.104614,1115.940674 1150.067993,1070.982300 1149.624756,1026.027954 
	C1149.361694,999.347473 1153.197266,973.095215 1156.747192,946.789368 
	C1157.766602,939.235718 1158.750732,931.676331 1159.879761,924.138794 
	C1160.369995,920.865479 1160.887939,917.543884 1161.909180,914.412354 
	C1164.910278,905.208740 1171.359619,900.712036 1180.909546,902.136169 
	C1195.338379,904.287842 1209.635498,907.307068 1224.036743,909.663635 
	C1234.130981,911.315491 1239.129761,917.516479 1240.192627,927.108032 
	C1241.723145,940.919556 1242.949585,954.767822 1244.111328,968.616699 
	C1247.029297,1003.401611 1252.798096,1037.734253 1260.665649,1071.707642 
	C1267.939819,1103.118530 1277.276367,1133.922119 1288.618408,1164.128296 
	C1292.080444,1173.348389 1294.569702,1182.933716 1297.755493,1193.157471 
	C1288.469238,1194.139160 1280.015137,1195.195679 1271.531738,1195.901001 
	C1238.782959,1198.623291 1206.026245,1201.249756 1173.268066,1203.857544 
	C1170.287964,1204.094727 1167.245728,1204.234497 1164.286987,1203.914795 
	C1157.895752,1203.224121 1152.204346,1197.751953 1151.773560,1191.659302 
	C1151.095703,1182.073975 1150.780640,1172.463013 1150.312134,1161.880127 
z"/>
<path fill="#F47027" opacity="1.000000" stroke="none" 
	d="
M966.525940,1106.657471 
	C977.036011,1047.221191 995.945068,991.344727 1020.484253,937.314331 
	C1027.766846,921.279663 1036.175659,905.758362 1043.970337,889.953430 
	C1047.348267,883.104065 1052.444702,878.215332 1060.273560,879.132080 
	C1068.610840,880.108337 1077.037842,882.603821 1080.200928,891.774902 
	C1081.519897,895.599060 1082.185547,900.376099 1081.146973,904.172424 
	C1071.500244,939.433655 1064.249390,975.199219 1058.739258,1011.289246 
	C1055.640137,1031.588501 1053.758667,1052.087158 1051.764160,1072.538452 
	C1048.212280,1108.958130 1047.429810,1145.496094 1047.595215,1182.071167 
	C1047.617432,1186.961182 1046.328735,1191.856934 1045.508057,1197.746948 
	C1033.015259,1194.828003 1021.161743,1192.232422 1009.403015,1189.261841 
	C997.822021,1186.336060 986.305298,1183.141479 974.819824,1179.856812 
	C965.434509,1177.172974 959.870789,1170.637451 960.486389,1160.872559 
	C961.423279,1146.012573 963.527466,1131.225586 965.166138,1116.410889 
	C965.495239,1113.435669 965.959534,1110.475464 966.525940,1106.657471 
z"/>
<path fill="#F47026" opacity="1.000000" stroke="none" 
	d="
M1805.812134,755.779053 
	C1844.500366,725.871948 1882.572144,696.318298 1921.358032,666.210449 
	C1924.817017,670.431335 1927.953613,674.191284 1931.016602,678.010315 
	C1937.670776,686.306763 1944.350586,694.583984 1950.882080,702.976440 
	C1952.915161,705.588928 1954.505493,708.545898 1956.298096,711.345459 
	C1962.812378,721.519409 1963.193481,732.008301 1957.186768,742.400024 
	C1953.201294,749.294800 1949.039062,756.203125 1944.071167,762.395447 
	C1913.914062,799.985229 1883.493774,837.363831 1853.213745,874.855408 
	C1852.188599,876.124756 1851.721680,877.845032 1850.195557,881.014160 
	C1827.550293,843.009277 1806.523438,807.720642 1785.212769,771.955566 
	C1792.277466,766.361572 1798.736694,761.247070 1805.812134,755.779053 
z"/>
<path fill="#F47027" opacity="1.000000" stroke="none" 
	d="
M1001.382202,1228.729492 
	C1015.511902,1233.942993 1028.770630,1239.328003 1042.376587,1243.609009 
	C1051.244751,1246.399414 1055.527832,1252.026978 1056.889893,1260.623169 
	C1058.548828,1271.093628 1060.182251,1281.569214 1061.696899,1292.061279 
	C1064.348022,1310.426147 1066.838501,1328.814331 1069.534668,1347.172485 
	C1070.254272,1352.072021 1068.603760,1355.461304 1063.702881,1358.305542 
	C1052.612915,1349.434448 1041.280273,1340.798096 1030.426880,1331.596558 
	C1008.884766,1313.333130 987.642578,1294.716431 966.200256,1276.334839 
	C958.845642,1270.030029 956.013977,1261.955078 955.646790,1252.555542 
	C955.130981,1239.354858 954.327271,1226.165283 953.583557,1211.745972 
	C970.080994,1217.593628 985.369812,1223.012939 1001.382202,1228.729492 
z"/>
<path fill="#F47128" opacity="1.000000" stroke="none" 
	d="
M1267.290894,701.373413 
	C1261.694336,721.613037 1256.076538,741.034546 1251.358398,760.672241 
	C1249.368530,768.954407 1249.243774,777.688965 1248.338745,786.225037 
	C1248.058960,788.863831 1248.217651,791.560120 1247.807251,794.172180 
	C1245.749023,807.272217 1238.075439,813.893738 1224.755371,813.987244 
	C1213.178223,814.068604 1201.565918,814.346069 1189.643921,811.205139 
	C1210.974609,746.067383 1238.368774,684.794739 1287.549683,635.102234 
	C1280.910889,656.949036 1274.271973,678.795837 1267.290894,701.373413 
z"/>
<path fill="#F47027" opacity="1.000000" stroke="none" 
	d="
M1757.865112,1527.994629 
	C1778.720825,1523.481812 1798.737305,1519.021729 1820.567261,1514.157471 
	C1813.460815,1544.824463 1806.703979,1573.983154 1799.725586,1604.097778 
	C1768.651367,1583.453491 1738.510254,1563.429321 1707.271362,1542.675781 
	C1723.470093,1533.816528 1740.734497,1532.506470 1757.865112,1527.994629 
z"/>
<path fill="#F47027" opacity="1.000000" stroke="none" 
	d="
M2094.970215,1806.979492 
	C2067.490234,1827.249023 2040.285156,1846.604004 2007.375610,1861.120605 
	C2009.147827,1858.147827 2009.642944,1857.097900 2010.331055,1856.195068 
	C2031.235596,1828.770386 2050.344727,1799.969727 2073.566895,1774.318604 
	C2084.149414,1762.629639 2096.305664,1753.944336 2112.250977,1751.668701 
	C2125.686768,1749.751099 2139.153809,1748.050781 2155.342529,1745.889038 
	C2150.343750,1752.886841 2147.059082,1758.115479 2143.156738,1762.833496 
	C2129.305664,1779.580322 2112.257080,1792.889404 2094.970215,1806.979492 
z"/>
<path fill="#F47127" opacity="1.000000" stroke="none" 
	d="
M2014.326538,636.417908 
	C2008.804688,646.972778 2003.601074,656.843872 1997.791870,667.863464 
	C1984.158936,651.837585 1971.570312,637.039551 1958.627930,621.825623 
	C1966.713257,612.869019 1974.257202,604.568298 1981.727905,596.202454 
	C1984.024170,593.631104 1986.652710,592.979370 1989.782104,594.258179 
	C1997.768066,597.521545 2005.940430,600.409790 2013.667725,604.202942 
	C2022.223022,608.402527 2023.994263,613.280640 2020.831665,622.157532 
	C2019.168579,626.825317 2016.732056,631.217529 2014.326538,636.417908 
z"/>
<path fill="#F4722A" opacity="1.000000" stroke="none" 
	d="
M1823.846680,542.172913 
	C1815.901245,538.162476 1808.639160,534.437378 1800.448486,530.235962 
	C1804.883789,526.229187 1808.162720,528.218933 1811.392944,529.131348 
	C1834.429443,535.638123 1857.471313,542.126404 1880.506714,548.636658 
	C1890.995239,551.600952 1901.473633,554.601807 1911.977295,557.591980 
	C1906.618042,573.846802 1893.561157,579.290039 1879.019287,571.639587 
	C1861.962891,562.666199 1845.055420,553.409668 1828.080566,544.281189 
	C1826.909180,543.651184 1825.714111,543.064941 1823.846680,542.172913 
z"/>
</svg>